<svg viewBox="0 0 1300 950" xmlns="http://www.w3.org/2000/svg" font-family="Segoe UI, Arial, sans-serif">
<rect x="0" y="0" width="1300" height="950" fill="#14161a"/>
<defs>
<marker id="arrow" markerWidth="10" markerHeight="10" refX="8" refY="3" orient="auto" markerUnits="strokeWidth">
  <path d="M0,0 L0,6 L9,3 z" fill="#bbb"/>
</marker>
</defs>
<rect x="230" y="20" width="1050" height="910" fill="none" stroke="#444" stroke-width="1"/>
<text x="750" y="40" fill="#888" font-size="13" text-anchor="middle">Systeme AgriGestion</text>

<g stroke="#eee" stroke-width="2" fill="none">
  <circle cx="70" cy="90" r="14" fill="#14161a"/>
  <line x1="70" y1="104" x2="70" y2="145"/>
  <line x1="48" y1="118" x2="92" y2="118"/>
  <line x1="70" y1="145" x2="50" y2="180"/>
  <line x1="70" y1="145" x2="90" y2="180"/>
</g>
<text x="70" y="198" fill="#eee" font-size="13" text-anchor="middle">Administrateur</text>

<g stroke="#eee" stroke-width="2" fill="none">
  <circle cx="70" cy="390" r="14" fill="#14161a"/>
  <line x1="70" y1="404" x2="70" y2="445"/>
  <line x1="48" y1="418" x2="92" y2="418"/>
  <line x1="70" y1="445" x2="50" y2="480"/>
  <line x1="70" y1="445" x2="90" y2="480"/>
</g>
<text x="70" y="498" fill="#eee" font-size="13" text-anchor="middle">Agriculteur</text>

<g stroke="#eee" stroke-width="2" fill="none">
  <circle cx="70" cy="700" r="14" fill="#14161a"/>
  <line x1="70" y1="714" x2="70" y2="755"/>
  <line x1="48" y1="728" x2="92" y2="728"/>
  <line x1="70" y1="755" x2="50" y2="790"/>
  <line x1="70" y1="755" x2="90" y2="790"/>
</g>
<text x="70" y="808" fill="#eee" font-size="13" text-anchor="middle">Responsable
de cooperative</text>
<ellipse cx="960" cy="460" rx="85" ry="30" fill="#2a2116" stroke="#ffb454" stroke-width="1.5"/><text x="960" y="464" fill="#eee" font-size="12" text-anchor="middle">S'authentifier</text>
<ellipse cx="340" cy="70" rx="95" ry="28" fill="#1f2430" stroke="#9fd3ff" stroke-width="1.5"/><text x="340" y="67" fill="#eee" font-size="12" text-anchor="middle">Gerer les comptes</text><text x="340" y="81" fill="#eee" font-size="12" text-anchor="middle">utilisateurs</text>
<line x1="92" y1="90" x2="245" y2="70" stroke="#eee" stroke-width="1.3"/>
<line x1="435" y1="70" x2="875" y2="450" stroke="#bbb" stroke-width="1" stroke-dasharray="4,3" marker-end="url(#arrow)"/><text x="655.0" y="255.0" fill="#ffb454" font-size="10" text-anchor="middle" font-style="italic"><<include>></text>
<ellipse cx="340" cy="130" rx="95" ry="28" fill="#1f2430" stroke="#9fd3ff" stroke-width="1.5"/><text x="340" y="127" fill="#eee" font-size="12" text-anchor="middle">Gerer les</text><text x="340" y="141" fill="#eee" font-size="12" text-anchor="middle">cooperatives</text>
<line x1="92" y1="90" x2="245" y2="130" stroke="#eee" stroke-width="1.3"/>
<line x1="435" y1="130" x2="875" y2="450" stroke="#bbb" stroke-width="1" stroke-dasharray="4,3" marker-end="url(#arrow)"/><text x="655.0" y="285.0" fill="#ffb454" font-size="10" text-anchor="middle" font-style="italic"><<include>></text>
<ellipse cx="340" cy="190" rx="95" ry="28" fill="#1f2430" stroke="#9fd3ff" stroke-width="1.5"/><text x="340" y="187" fill="#eee" font-size="12" text-anchor="middle">Gerer les</text><text x="340" y="201" fill="#eee" font-size="12" text-anchor="middle">agriculteurs</text>
<line x1="92" y1="90" x2="245" y2="190" stroke="#eee" stroke-width="1.3"/>
<line x1="435" y1="190" x2="875" y2="450" stroke="#bbb" stroke-width="1" stroke-dasharray="4,3" marker-end="url(#arrow)"/><text x="655.0" y="315.0" fill="#ffb454" font-size="10" text-anchor="middle" font-style="italic"><<include>></text>
<ellipse cx="365" cy="250" rx="95" ry="28" fill="#1f2430" stroke="#9fd3ff" stroke-width="1.5"/><text x="365" y="247" fill="#eee" font-size="12" text-anchor="middle">Gerer les parcelles</text><text x="365" y="261" fill="#eee" font-size="12" text-anchor="middle">(creation/assignation)</text>
<line x1="92" y1="90" x2="270" y2="250" stroke="#eee" stroke-width="1.3"/>
<line x1="460" y1="250" x2="875" y2="450" stroke="#bbb" stroke-width="1" stroke-dasharray="4,3" marker-end="url(#arrow)"/><text x="667.5" y="345.0" fill="#ffb454" font-size="10" text-anchor="middle" font-style="italic"><<include>></text>
<ellipse cx="340" cy="310" rx="95" ry="28" fill="#1f2430" stroke="#9fd3ff" stroke-width="1.5"/><text x="340" y="307" fill="#eee" font-size="12" text-anchor="middle">Gerer les zones</text><text x="340" y="321" fill="#eee" font-size="12" text-anchor="middle">agroecologiques</text>
<line x1="92" y1="90" x2="245" y2="310" stroke="#eee" stroke-width="1.3"/>
<line x1="435" y1="310" x2="875" y2="450" stroke="#bbb" stroke-width="1" stroke-dasharray="4,3" marker-end="url(#arrow)"/><text x="655.0" y="375.0" fill="#ffb454" font-size="10" text-anchor="middle" font-style="italic"><<include>></text>
<ellipse cx="340" cy="370" rx="105" ry="28" fill="#1f2430" stroke="#9fd3ff" stroke-width="1.5"/><text x="340" y="367" fill="#eee" font-size="12" text-anchor="middle">Gerer le referentiel</text><text x="340" y="381" fill="#eee" font-size="12" text-anchor="middle">des cultures</text>
<line x1="92" y1="90" x2="235" y2="370" stroke="#eee" stroke-width="1.3"/>
<line x1="445" y1="370" x2="875" y2="450" stroke="#bbb" stroke-width="1" stroke-dasharray="4,3" marker-end="url(#arrow)"/><text x="660.0" y="405.0" fill="#ffb454" font-size="10" text-anchor="middle" font-style="italic"><<include>></text>
<ellipse cx="340" cy="430" rx="105" ry="28" fill="#1f2430" stroke="#9fd3ff" stroke-width="1.5"/><text x="340" y="427" fill="#eee" font-size="12" text-anchor="middle">Gerer le referentiel</text><text x="340" y="441" fill="#eee" font-size="12" text-anchor="middle">des intrants</text>
<line x1="92" y1="90" x2="235" y2="430" stroke="#eee" stroke-width="1.3"/>
<line x1="445" y1="430" x2="875" y2="450" stroke="#bbb" stroke-width="1" stroke-dasharray="4,3" marker-end="url(#arrow)"/><text x="660.0" y="435.0" fill="#ffb454" font-size="10" text-anchor="middle" font-style="italic"><<include>></text>
<ellipse cx="320" cy="480" rx="95" ry="28" fill="#1f2430" stroke="#9fd3ff" stroke-width="1.5"/><text x="320" y="484" fill="#eee" font-size="12" text-anchor="middle">Gerer les saisons</text>
<line x1="92" y1="90" x2="225" y2="480" stroke="#eee" stroke-width="1.3"/>
<line x1="415" y1="480" x2="875" y2="450" stroke="#bbb" stroke-width="1" stroke-dasharray="4,3" marker-end="url(#arrow)"/><text x="645.0" y="460.0" fill="#ffb454" font-size="10" text-anchor="middle" font-style="italic"><<include>></text>
<ellipse cx="340" cy="570" rx="95" ry="28" fill="#1f2430" stroke="#9fd3ff" stroke-width="1.5"/><text x="340" y="567" fill="#eee" font-size="12" text-anchor="middle">Consulter mes</text><text x="340" y="581" fill="#eee" font-size="12" text-anchor="middle">parcelles</text>
<line x1="92" y1="390" x2="245" y2="570" stroke="#eee" stroke-width="1.3"/>
<ellipse cx="365" cy="640" rx="100" ry="30" fill="#1f2430" stroke="#9fd3ff" stroke-width="1.5"/><text x="365" y="637" fill="#eee" font-size="12" text-anchor="middle">Saisir une mise</text><text x="365" y="651" fill="#eee" font-size="12" text-anchor="middle">en culture</text>
<line x1="92" y1="390" x2="265" y2="640" stroke="#eee" stroke-width="1.3"/>
<ellipse cx="355" cy="710" rx="100" ry="28" fill="#1f2430" stroke="#9fd3ff" stroke-width="1.5"/><text x="355" y="707" fill="#eee" font-size="12" text-anchor="middle">Saisir un intrant</text><text x="355" y="721" fill="#eee" font-size="12" text-anchor="middle">utilise</text>
<line x1="92" y1="390" x2="255" y2="710" stroke="#eee" stroke-width="1.3"/>
<ellipse cx="335" cy="775" rx="95" ry="28" fill="#1f2430" stroke="#9fd3ff" stroke-width="1.5"/><text x="335" y="779" fill="#eee" font-size="12" text-anchor="middle">Saisir une recolte</text>
<line x1="92" y1="390" x2="240" y2="775" stroke="#eee" stroke-width="1.3"/>
<ellipse cx="345" cy="835" rx="95" ry="28" fill="#1f2430" stroke="#9fd3ff" stroke-width="1.5"/><text x="345" y="832" fill="#eee" font-size="12" text-anchor="middle">Consulter mon</text><text x="345" y="846" fill="#eee" font-size="12" text-anchor="middle">historique</text>
<line x1="92" y1="390" x2="250" y2="835" stroke="#eee" stroke-width="1.3"/>
<line x1="435" y1="570" x2="875" y2="456" stroke="#bbb" stroke-width="1" stroke-dasharray="4,3" marker-end="url(#arrow)"/><text x="655.0" y="508.0" fill="#ffb454" font-size="10" text-anchor="middle" font-style="italic"><<include>></text>
<line x1="465" y1="640" x2="875" y2="468" stroke="#bbb" stroke-width="1" stroke-dasharray="4,3" marker-end="url(#arrow)"/><text x="670.0" y="549.0" fill="#ffb454" font-size="10" text-anchor="middle" font-style="italic"><<include>></text>
<line x1="455" y1="710" x2="875" y2="478" stroke="#bbb" stroke-width="1" stroke-dasharray="4,3" marker-end="url(#arrow)"/><text x="665.0" y="589.0" fill="#ffb454" font-size="10" text-anchor="middle" font-style="italic"><<include>></text>
<line x1="430" y1="775" x2="875" y2="488" stroke="#bbb" stroke-width="1" stroke-dasharray="4,3" marker-end="url(#arrow)"/><text x="652.5" y="626.5" fill="#ffb454" font-size="10" text-anchor="middle" font-style="italic"><<include>></text>
<line x1="440" y1="835" x2="875" y2="498" stroke="#bbb" stroke-width="1" stroke-dasharray="4,3" marker-end="url(#arrow)"/><text x="657.5" y="661.5" fill="#ffb454" font-size="10" text-anchor="middle" font-style="italic"><<include>></text>
<ellipse cx="680" cy="610" rx="88" ry="26" fill="#1f2430" stroke="#9fd3ff" stroke-width="1.5"/><text x="680" y="607" fill="#eee" font-size="12" text-anchor="middle">Selectionner une</text><text x="680" y="621" fill="#eee" font-size="12" text-anchor="middle">parcelle</text>
<ellipse cx="680" cy="665" rx="88" ry="26" fill="#1f2430" stroke="#9fd3ff" stroke-width="1.5"/><text x="680" y="662" fill="#eee" font-size="12" text-anchor="middle">Selectionner une</text><text x="680" y="676" fill="#eee" font-size="12" text-anchor="middle">culture</text>
<ellipse cx="680" cy="720" rx="88" ry="26" fill="#1f2430" stroke="#9fd3ff" stroke-width="1.5"/><text x="680" y="717" fill="#eee" font-size="12" text-anchor="middle">Selectionner une</text><text x="680" y="731" fill="#eee" font-size="12" text-anchor="middle">saison</text>
<ellipse cx="680" cy="775" rx="88" ry="26" fill="#1f2430" stroke="#9fd3ff" stroke-width="1.5"/><text x="680" y="772" fill="#eee" font-size="12" text-anchor="middle">Selectionner un</text><text x="680" y="786" fill="#eee" font-size="12" text-anchor="middle">intrant</text>
<line x1="465" y1="632" x2="592" y2="610" stroke="#bbb" stroke-width="1" stroke-dasharray="4,3" marker-end="url(#arrow)"/><text x="528.5" y="616.0" fill="#ffb454" font-size="10" text-anchor="middle" font-style="italic"><<include>></text>
<line x1="465" y1="640" x2="592" y2="657" stroke="#bbb" stroke-width="1" stroke-dasharray="4,3" marker-end="url(#arrow)"/><text x="528.5" y="643.5" fill="#ffb454" font-size="10" text-anchor="middle" font-style="italic"><<include>></text>
<line x1="465" y1="650" x2="592" y2="706" stroke="#bbb" stroke-width="1" stroke-dasharray="4,3" marker-end="url(#arrow)"/><text x="528.5" y="673.0" fill="#ffb454" font-size="10" text-anchor="middle" font-style="italic"><<include>></text>
<line x1="455" y1="704" x2="592" y2="626" stroke="#bbb" stroke-width="1" stroke-dasharray="4,3" marker-end="url(#arrow)"/><text x="523.5" y="660.0" fill="#ffb454" font-size="10" text-anchor="middle" font-style="italic"><<include>></text>
<line x1="455" y1="714" x2="592" y2="767" stroke="#bbb" stroke-width="1" stroke-dasharray="4,3" marker-end="url(#arrow)"/><text x="523.5" y="735.5" fill="#ffb454" font-size="10" text-anchor="middle" font-style="italic"><<include>></text>
<line x1="430" y1="769" x2="592" y2="636" stroke="#bbb" stroke-width="1" stroke-dasharray="4,3" marker-end="url(#arrow)"/><text x="511.0" y="697.5" fill="#ffb454" font-size="10" text-anchor="middle" font-style="italic"><<include>></text>
<line x1="430" y1="779" x2="592" y2="685" stroke="#bbb" stroke-width="1" stroke-dasharray="4,3" marker-end="url(#arrow)"/><text x="511.0" y="727.0" fill="#ffb454" font-size="10" text-anchor="middle" font-style="italic"><<include>></text>
<ellipse cx="960" cy="645" rx="105" ry="32" fill="#241a1a" stroke="#ff8080" stroke-width="1.5"/><text x="960" y="642" fill="#eee" font-size="12" text-anchor="middle">Recevoir une alerte</text><text x="960" y="656" fill="#eee" font-size="12" text-anchor="middle">de rotation</text>
<line x1="855" y1="639" x2="545" y2="695" stroke="#ff8080" stroke-width="1" stroke-dasharray="4,3" marker-end="url(#arrow)"/><text x="700.0" y="662.0" fill="#ffb454" font-size="10" text-anchor="middle" font-style="italic"><<extend>></text>
<ellipse cx="350" cy="690" rx="100" ry="30" fill="#1f2430" stroke="#9fd3ff" stroke-width="1.5"/><text x="350" y="687" fill="#eee" font-size="12" text-anchor="middle">Consulter le bilan</text><text x="350" y="701" fill="#eee" font-size="12" text-anchor="middle">de production</text>
<line x1="92" y1="700" x2="250" y2="690" stroke="#eee" stroke-width="1.3"/>
<ellipse cx="355" cy="758" rx="105" ry="30" fill="#1f2430" stroke="#9fd3ff" stroke-width="1.5"/><text x="355" y="748" fill="#eee" font-size="12" text-anchor="middle">Consulter la liste des</text><text x="355" y="762" fill="#eee" font-size="12" text-anchor="middle">agriculteurs de ma</text><text x="355" y="776" fill="#eee" font-size="12" text-anchor="middle">cooperative</text>
<line x1="92" y1="700" x2="250" y2="758" stroke="#eee" stroke-width="1.3"/>
<line x1="450" y1="684" x2="875" y2="508" stroke="#bbb" stroke-width="1" stroke-dasharray="4,3" marker-end="url(#arrow)"/><text x="662.5" y="591.0" fill="#ffb454" font-size="10" text-anchor="middle" font-style="italic"><<include>></text>
<line x1="460" y1="758" x2="875" y2="518" stroke="#bbb" stroke-width="1" stroke-dasharray="4,3" marker-end="url(#arrow)"/><text x="667.5" y="633.0" fill="#ffb454" font-size="10" text-anchor="middle" font-style="italic"><<include>></text>
<ellipse cx="680" cy="848" rx="90" ry="27" fill="#1a2420" stroke="#8ef0a0" stroke-width="1.5"/><text x="680" y="845" fill="#eee" font-size="12" text-anchor="middle">Filtrer par culture</text><text x="680" y="859" fill="#eee" font-size="12" text-anchor="middle">/periode</text>
<ellipse cx="680" cy="900" rx="90" ry="27" fill="#1a2420" stroke="#8ef0a0" stroke-width="1.5"/><text x="680" y="904" fill="#eee" font-size="12" text-anchor="middle">Filtrer par saison</text>
<line x1="590" y1="842" x2="540" y2="745" stroke="#8ef0a0" stroke-width="1" stroke-dasharray="4,3" marker-end="url(#arrow)"/><text x="565.0" y="788.5" fill="#ffb454" font-size="10" text-anchor="middle" font-style="italic"><<extend>></text>
<line x1="590" y1="894" x2="540" y2="755" stroke="#8ef0a0" stroke-width="1" stroke-dasharray="4,3" marker-end="url(#arrow)"/><text x="565.0" y="819.5" fill="#ffb454" font-size="10" text-anchor="middle" font-style="italic"><<extend>></text>
<g font-size="11" fill="#ccc">
<text x="1000" y="30">Legende:</text>
<line x1="1000" y1="45" x2="1030" y2="45" stroke="#bbb" stroke-dasharray="4,3" marker-end="url(#arrow)"/>
<text x="1035" y="49">include (obligatoire)</text>
<line x1="1000" y1="65" x2="1030" y2="65" stroke="#ff8080" stroke-dasharray="4,3" marker-end="url(#arrow)"/>
<text x="1035" y="69">extend (conditionnel)</text>
</g>
</svg>